<mxfile host="app.diagrams.net" modified="2024-07-17T06:57:17.180Z" agent="Mozilla/5.0 (Macintosh; Intel Mac OS X 10_15_7) AppleWebKit/537.36 (KHTML, like Gecko) Chrome/126.0.0.0 Safari/537.36" version="24.4.4" etag="Dfqvagh3M-qXeORUofTg" type="github">
  <diagram name="Page-1" id="wfy2vH4tPhA1ojRV37OT">
    <mxGraphModel>
      <root>
        <mxCell id="0" />
        <mxCell id="1" parent="0" />
      </root>
    </mxGraphModel>
  </diagram>
</mxfile>
